<svg width="90" height="90" viewBox="0 0 90 90" fill="none" xmlns="http://www.w3.org/2000/svg">
<path d="M20.295 29.1953L24.9005 18.8242C25.8732 16.6211 26.5177 15.0684 26.8341 14.166C27.1505 13.252 27.3087 12.5605 27.3087 12.0918V11.916C27.4259 11.916 27.6017 11.9219 27.836 11.9336C29.629 12.0156 30.9181 12.0566 31.7032 12.0566C32.1368 12.0566 33.0333 12.0273 34.3927 11.9688C34.9552 11.9453 35.3888 11.9277 35.6935 11.916V13.498C34.4864 13.498 33.6837 13.6504 33.2853 13.9551C32.8985 14.2598 32.7052 14.8984 32.7052 15.8711C32.7052 16.3398 32.7286 17.125 32.7755 18.2266C32.8224 19.3164 32.8868 20.5117 32.9689 21.8125L33.215 26.084C33.4142 29.2012 33.5607 31.2695 33.6544 32.2891C33.7482 33.2969 33.8419 33.9648 33.9357 34.293C34.0294 34.6562 34.2696 34.9375 34.6564 35.1367C35.0431 35.3242 35.547 35.418 36.1681 35.418H36.6075L36.59 37C35.5939 36.9414 34.6271 36.9004 33.6896 36.877C32.7521 36.8418 31.8849 36.8242 31.088 36.8242C30.631 36.8242 30.0275 36.8359 29.2775 36.8594C28.5275 36.8828 27.4025 36.9297 25.9025 37V35.418H26.4474C27.4083 35.418 28.0704 35.2539 28.4337 34.9258C28.8087 34.5977 28.9962 34.0176 28.9962 33.1855C28.9962 32.9043 28.9903 32.6172 28.9786 32.3242C28.9786 32.0195 28.961 31.6328 28.9259 31.1641L28.2052 17.1367L21.8419 31.5332C21.2325 32.916 20.8048 33.9707 20.5587 34.6973C20.3126 35.4121 20.1251 36.0977 19.9962 36.7539H18.0978C17.9923 36.2734 17.8458 35.7578 17.6583 35.207C17.4708 34.6562 17.1837 33.9238 16.797 33.0098L10.3634 17.5586C10.0235 21.3555 9.75988 24.543 9.57238 27.1211C9.3966 29.6992 9.3087 31.4453 9.3087 32.3594C9.3087 33.6133 9.47863 34.4395 9.81847 34.8379C10.1583 35.2246 10.8321 35.418 11.84 35.418H12.3321V37C11.1837 36.9297 10.2462 36.8828 9.51964 36.8594C8.8048 36.8359 8.1837 36.8242 7.65636 36.8242C7.37511 36.8242 6.97081 36.8359 6.44347 36.8594C5.92785 36.8711 4.88488 36.918 3.31456 37L3.29699 35.418C3.32042 35.418 3.36144 35.4238 3.42003 35.4355C3.72472 35.4707 3.93566 35.4883 4.05285 35.4883C5.59972 35.4883 6.54308 33.332 6.88292 29.0195C6.97667 27.8477 7.05285 26.9219 7.11144 26.2422L7.51574 22.0234C7.65636 20.3594 7.76769 18.9707 7.84972 17.8574C7.93175 16.7441 7.97277 16.0352 7.97277 15.7305C7.97277 14.8633 7.80285 14.2773 7.463 13.9727C7.13488 13.6562 6.49035 13.498 5.52941 13.498H5.07238V11.916C5.82238 11.9629 6.54308 11.998 7.23449 12.0215C7.93761 12.0449 8.58214 12.0566 9.16808 12.0566C9.63683 12.0566 10.6212 12.0273 12.1212 11.9688C12.7306 11.9453 13.211 11.9277 13.5626 11.916V12.0566C13.5626 12.9707 14.9337 16.6328 17.6759 23.043C18.7775 25.6211 19.6505 27.6719 20.295 29.1953Z" fill="#F1F1F1"/>
<path d="M69.8456 79.1953L74.4511 68.8242C75.4237 66.6211 76.0682 65.0684 76.3847 64.166C76.7011 63.252 76.8593 62.5605 76.8593 62.0918V61.916C76.9765 61.916 77.1522 61.9219 77.3866 61.9336C79.1796 62.0156 80.4686 62.0566 81.2538 62.0566C81.6874 62.0566 82.5839 62.0273 83.9432 61.9688C84.5057 61.9453 84.9393 61.9277 85.244 61.916V63.498C84.037 63.498 83.2343 63.6504 82.8358 63.9551C82.4491 64.2598 82.2557 64.8984 82.2557 65.8711C82.2557 66.3398 82.2792 67.125 82.3261 68.2266C82.3729 69.3164 82.4374 70.5117 82.5194 71.8125L82.7655 76.084C82.9647 79.2012 83.1112 81.2695 83.205 82.2891C83.2987 83.2969 83.3925 83.9648 83.4862 84.293C83.58 84.6562 83.8202 84.9375 84.2069 85.1367C84.5936 85.3242 85.0975 85.418 85.7186 85.418H86.1581L86.1405 87C85.1444 86.9414 84.1776 86.9004 83.2401 86.877C82.3026 86.8418 81.4354 86.8242 80.6386 86.8242C80.1815 86.8242 79.578 86.8359 78.828 86.8594C78.078 86.8828 76.953 86.9297 75.453 87V85.418H75.9979C76.9589 85.418 77.621 85.2539 77.9843 84.9258C78.3593 84.5977 78.5468 84.0176 78.5468 83.1855C78.5468 82.9043 78.5409 82.6172 78.5292 82.3242C78.5292 82.0195 78.5116 81.6328 78.4765 81.1641L77.7557 67.1367L71.3925 81.5332C70.7831 82.916 70.3554 83.9707 70.1093 84.6973C69.8632 85.4121 69.6757 86.0977 69.5468 86.7539H67.6483C67.5429 86.2734 67.3964 85.7578 67.2089 85.207C67.0214 84.6562 66.7343 83.9238 66.3475 83.0098L59.914 67.5586C59.5741 71.3555 59.3104 74.543 59.1229 77.1211C58.9472 79.6992 58.8593 81.4453 58.8593 82.3594C58.8593 83.6133 59.0292 84.4395 59.369 84.8379C59.7089 85.2246 60.3827 85.418 61.3905 85.418H61.8827V87C60.7343 86.9297 59.7968 86.8828 59.0702 86.8594C58.3554 86.8359 57.7343 86.8242 57.2069 86.8242C56.9257 86.8242 56.5214 86.8359 55.994 86.8594C55.4784 86.8711 54.4354 86.918 52.8651 87L52.8475 85.418C52.871 85.418 52.912 85.4238 52.9706 85.4355C53.2753 85.4707 53.4862 85.4883 53.6034 85.4883C55.1503 85.4883 56.0936 83.332 56.4335 79.0195C56.5272 77.8477 56.6034 76.9219 56.662 76.2422L57.0663 72.0234C57.2069 70.3594 57.3182 68.9707 57.4003 67.8574C57.4823 66.7441 57.5233 66.0352 57.5233 65.7305C57.5233 64.8633 57.3534 64.2773 57.0136 63.9727C56.6854 63.6562 56.0409 63.498 55.08 63.498H54.6229V61.916C55.3729 61.9629 56.0936 61.998 56.785 62.0215C57.4882 62.0449 58.1327 62.0566 58.7186 62.0566C59.1874 62.0566 60.1718 62.0273 61.6718 61.9688C62.2811 61.9453 62.7616 61.9277 63.1132 61.916V62.0566C63.1132 62.9707 64.4843 66.6328 67.2265 73.043C68.328 75.6211 69.2011 77.6719 69.8456 79.1953Z" fill="#F1F1F1"/>
<line y1="-0.5" x2="110.62" y2="-0.5" transform="matrix(0.711046 -0.703146 0.711046 0.703146 5.05618 85.3173)" stroke="#AF8936"/>
</svg>
